<?xml version="1.0" encoding="UTF-8"?>
<svg width="30px" height="30px" viewBox="0 0 30 30" version="1.1" xmlns="http://www.w3.org/2000/svg" xmlns:xlink="http://www.w3.org/1999/xlink">
    <!-- Generator: Sketch 42 (36781) - http://www.bohemiancoding.com/sketch -->
    <title>Group</title>
    <desc>Created with Sketch.</desc>
    <defs>
        <rect id="path-1" x="0" y="0" width="30" height="30" rx="4"></rect>
    </defs>
    <g id="开放平台-首页" stroke="none" stroke-width="1" fill="none" fill-rule="evenodd">
        <g id="技能开发－技能列表" transform="translate(-196.000000, -474.000000)">
            <g id="Group" transform="translate(196.000000, 474.000000)">
                <g id="Icon-Copy-2">
                    <mask id="mask-2" fill="white">
                        <use xlink:href="#path-1"></use>
                    </mask>
                    <use id="Icon" fill="#D8D8D8" xlink:href="#path-1"></use>
                </g>
                <path d="M15,17.1478868 L11.6968302,14.9383019 L15,12.728717 L18.3038491,14.9383019 L15,17.1478868 Z M15.9339623,6.75 L23.2521509,11.6283396 L19.9836226,13.8148302 L15.9339623,11.106 L15.9339623,6.75 Z M15.9339623,23.1266038 L15.9339623,18.7706038 L19.9836226,16.0624528 L23.2521509,18.2482642 L15.9339623,23.1266038 Z M24,16.5012453 L21.6633962,14.9383019 L24,13.3753585 L24,16.5012453 Z M14.0660377,23.1266038 L6.74784906,18.2482642 L10.0170566,16.0624528 L14.0660377,18.7706038 L14.0660377,23.1266038 Z M6,13.3753585 L8.33728302,14.9383019 L6,16.5012453 L6,13.3753585 Z M14.0660377,6.75 L14.0660377,11.106 L10.0170566,13.8148302 L6.74784906,11.6283396 L14.0660377,6.75 Z" id="Combined-Shape" fill="#FFFFFF"></path>
            </g>
        </g>
    </g>
</svg>