<?xml version="1.0" encoding="UTF-8"?>
<svg width="12px" height="12px" viewBox="0 0 12 12" version="1.1" xmlns="http://www.w3.org/2000/svg" xmlns:xlink="http://www.w3.org/1999/xlink">
    <!-- Generator: Sketch 46 (44423) - http://www.bohemiancoding.com/sketch -->
    <title>Shape</title>
    <desc>Created with Sketch.</desc>
    <defs></defs>
    <g id="Page-1" stroke="none" stroke-width="1" fill="none" fill-rule="evenodd">
        <g id="技能开发－技能列表空-copy" transform="translate(-180.000000, -730.000000)" fill-rule="nonzero" fill="#CCCCCC">
            <g id="Group-6" transform="translate(180.000000, 730.000000)">
                <g id="export-copy">
                    <path d="M6.5,1.95190296 L6.5,8.25 L6.5,8.25 C6.5,8.52614237 6.27614237,8.75 6,8.75 L6,8.75 L6,8.75 C5.72385763,8.75 5.5,8.52614237 5.5,8.25 L5.5,1.9623106 L3.70710679,3.75520381 L3.70710679,3.75520381 C3.51184465,3.95046595 3.19526215,3.95046596 3,3.75520381 L3,3.75520381 L3,3.75520381 C2.80473785,3.55994167 2.80473785,3.24335919 2.99999999,3.04809704 C2.99999999,3.04809704 2.99999999,3.04809703 2.99999999,3.04809703 L5.65165043,0.396446608 L5.65165043,0.396446609 C5.84691258,0.201184464 6.16349507,0.201184465 6.35875721,0.39644661 L9.01040764,3.04809704 L9.01040764,3.04809704 C9.20566978,3.24335918 9.20566978,3.55994167 9.01040764,3.75520381 L9.01040764,3.75520381 L9.01040764,3.75520381 C8.81514549,3.95046596 8.49856301,3.95046596 8.30330086,3.75520381 L6.5,1.95190296 Z M1.75,10.25 L10.25,10.25 L10.25,10.25 C10.3880712,10.25 10.5,10.1380712 10.5,10 L10.5,8 L10.5,8 C10.5,7.72385763 10.7238576,7.5 11,7.5 L11,7.5 L11,7.5 C11.2761424,7.5 11.5,7.72385763 11.5,8 L11.5,10.25 L11.5,10.25 C11.5,10.8022847 11.0522847,11.25 10.5,11.25 L1.5,11.25 L1.5,11.25 C0.94771525,11.25 0.5,10.8022847 0.5,10.25 L0.5,8 L0.5,8 C0.5,7.72385763 0.723857625,7.5 1,7.5 L1,7.5 L1,7.5 C1.27614237,7.5 1.5,7.72385763 1.5,8 L1.5,10 L1.5,10 C1.5,10.1380712 1.61192881,10.25 1.75,10.25 Z" id="Shape"></path>
                </g>
            </g>
        </g>
    </g>
</svg>