<?xml version="1.0" encoding="UTF-8"?>
<svg width="12px" height="12px" viewBox="0 0 12 12" version="1.1" xmlns="http://www.w3.org/2000/svg" xmlns:xlink="http://www.w3.org/1999/xlink">
    <!-- Generator: Sketch 46 (44423) - http://www.bohemiancoding.com/sketch -->
    <title>Shape</title>
    <desc>Created with Sketch.</desc>
    <defs></defs>
    <g id="Page-1" stroke="none" stroke-width="1" fill="none" fill-rule="evenodd">
        <g id="技能开发－技能列表空-copy" transform="translate(-377.000000, -730.000000)" fill-rule="nonzero" fill="#CCCCCC">
            <g id="Group-6" transform="translate(180.000000, 730.000000)">
                <path d="M207.292227,8.56623213 C207.741664,7.81604947 208,6.93821983 208,6 C208,3.23820408 205.761608,1 203,1 C200.238204,1 198,3.23839182 198,6 C198,6.9382526 198.258341,7.81607565 198.707771,8.56624112 C199.179899,7.89601677 199.861601,7.34871773 200.673075,6.98621067 C200.399513,6.47374382 200.25,5.87482555 200.25,5.25 C200.25,3.47472283 201.456591,2 203,2 C204.543409,2 205.75,3.47472283 205.75,5.25 C205.75,5.8748239 205.600488,6.47374068 205.326927,6.98620663 C206.138891,7.34892468 206.820381,7.89642308 207.292227,8.56623262 L207.292227,8.56623213 Z M197,6 C197,2.6860702 199.685845,0 203,0 C206.31393,0 209,2.6858449 209,6 C209,9.3139298 206.314155,12 203,12 C199.68607,12 197,9.3141551 197,6 Z" id="Shape"></path>
            </g>
        </g>
    </g>
</svg>